<svg width="20" height="20" viewBox="0 0 20 20" fill="none" xmlns="http://www.w3.org/2000/svg">
<path d="M11 10C11.104 10 11.205 10.008 11.305 10.023C10.915 10.302 10.562 10.631 10.257 11H4C3.73478 11 3.48043 11.1054 3.29289 11.2929C3.10536 11.4804 3 11.7348 3 12V13.5C3 14.907 4.579 16 7.5 16C8.05971 16.0037 8.61862 15.9572 9.17 15.861C9.253 16.19 9.367 16.506 9.506 16.808C8.84559 16.9399 8.17345 17.0043 7.5 17C4.088 17 2 15.554 2 13.5V12C2 11.4696 2.21071 10.9609 2.58579 10.5858C2.96086 10.2107 3.46957 10 4 10H11Z" fill="black"/>
<path d="M17 6.5C17 7.16304 16.7366 7.79893 16.2678 8.26777C15.7989 8.73661 15.163 9 14.5 9C13.837 9 13.2011 8.73661 12.7322 8.26777C12.2634 7.79893 12 7.16304 12 6.5C12 5.83696 12.2634 5.20107 12.7322 4.73223C13.2011 4.26339 13.837 4 14.5 4C15.163 4 15.7989 4.26339 16.2678 4.73223C16.7366 5.20107 17 5.83696 17 6.5V6.5ZM14.5 5C14.1022 5 13.7206 5.15804 13.4393 5.43934C13.158 5.72064 13 6.10218 13 6.5C13 6.89782 13.158 7.27936 13.4393 7.56066C13.7206 7.84196 14.1022 8 14.5 8C14.8978 8 15.2794 7.84196 15.5607 7.56066C15.842 7.27936 16 6.89782 16 6.5C16 6.10218 15.842 5.72064 15.5607 5.43934C15.2794 5.15804 14.8978 5 14.5 5Z" fill="black"/>
<path d="M7.5 2C7.95963 2 8.41475 2.09053 8.83939 2.26642C9.26403 2.44231 9.64987 2.70012 9.97487 3.02513C10.2999 3.35013 10.5577 3.73597 10.7336 4.16061C10.9095 4.58525 11 5.04037 11 5.5C11 5.95963 10.9095 6.41475 10.7336 6.83939C10.5577 7.26403 10.2999 7.64987 9.97487 7.97487C9.64987 8.29988 9.26403 8.55769 8.83939 8.73358C8.41475 8.90947 7.95963 9 7.5 9C6.57174 9 5.6815 8.63125 5.02513 7.97487C4.36875 7.3185 4 6.42826 4 5.5C4 4.57174 4.36875 3.6815 5.02513 3.02513C5.6815 2.36875 6.57174 2 7.5 2V2ZM7.5 3C6.83696 3 6.20107 3.26339 5.73223 3.73223C5.26339 4.20107 5 4.83696 5 5.5C5 6.16304 5.26339 6.79893 5.73223 7.26777C6.20107 7.73661 6.83696 8 7.5 8C8.16304 8 8.79893 7.73661 9.26777 7.26777C9.73661 6.79893 10 6.16304 10 5.5C10 4.83696 9.73661 4.20107 9.26777 3.73223C8.79893 3.26339 8.16304 3 7.5 3Z" fill="black"/>
<path d="M19 14.5C19 15.6935 18.5259 16.8381 17.682 17.682C16.8381 18.5259 15.6935 19 14.5 19C13.3065 19 12.1619 18.5259 11.318 17.682C10.4741 16.8381 10 15.6935 10 14.5C10 13.3065 10.4741 12.1619 11.318 11.318C12.1619 10.4741 13.3065 10 14.5 10C15.6935 10 16.8381 10.4741 17.682 11.318C18.5259 12.1619 19 13.3065 19 14.5V14.5ZM15 12.5C15 12.3674 14.9473 12.2402 14.8536 12.1464C14.7598 12.0527 14.6326 12 14.5 12C14.3674 12 14.2402 12.0527 14.1464 12.1464C14.0527 12.2402 14 12.3674 14 12.5V14H12.5C12.3674 14 12.2402 14.0527 12.1464 14.1464C12.0527 14.2402 12 14.3674 12 14.5C12 14.6326 12.0527 14.7598 12.1464 14.8536C12.2402 14.9473 12.3674 15 12.5 15H14V16.5C14 16.6326 14.0527 16.7598 14.1464 16.8536C14.2402 16.9473 14.3674 17 14.5 17C14.6326 17 14.7598 16.9473 14.8536 16.8536C14.9473 16.7598 15 16.6326 15 16.5V15H16.5C16.6326 15 16.7598 14.9473 16.8536 14.8536C16.9473 14.7598 17 14.6326 17 14.5C17 14.3674 16.9473 14.2402 16.8536 14.1464C16.7598 14.0527 16.6326 14 16.5 14H15V12.5Z" fill="black"/>
</svg>
